<?xml version="1.0" encoding="UTF-8" standalone="no"?>
<!DOCTYPE svg PUBLIC "-//W3C//DTD SVG 1.1//EN"
 "http://www.w3.org/Graphics/SVG/1.1/DTD/svg11.dtd">
<!-- Generated by graphviz version 2.47.1 (20210417.1919)
 -->
<!-- Title: G Pages: 1 -->
<svg width="1807pt" height="166pt"
 viewBox="0.00 0.00 1807.33 165.85" xmlns="http://www.w3.org/2000/svg" xmlns:xlink="http://www.w3.org/1999/xlink">
<g id="graph0" class="graph" transform="scale(1 1) rotate(0) translate(4 161.85)">
<title>G</title><style>.edge>path:hover{stroke-width:8}</style>
<polygon fill="white" stroke="transparent" points="-4,4 -4,-161.85 1803.33,-161.85 1803.33,4 -4,4"/>
<!-- tools__playground -->
<g id="node1" class="node">
<title>tools__playground</title><style>.edge>path:hover{stroke-width:8}</style>
<ellipse fill="#ac4949" stroke="black" cx="48.79" cy="-21.21" rx="48.58" ry="21.43"/>
<text text-anchor="middle" x="48.79" y="-24.21" font-family="Helvetica,sans-Serif" font-size="10.00" fill="#ffffff">tools.</text>
<text text-anchor="middle" x="48.79" y="-13.21" font-family="Helvetica,sans-Serif" font-size="10.00" fill="#ffffff">_playground</text>
</g>
<!-- tools_add_all_cohorts_to_teacher -->
<g id="node2" class="node">
<title>tools_add_all_cohorts_to_teacher</title><style>.edge>path:hover{stroke-width:8}</style>
<ellipse fill="#ac4949" stroke="black" cx="1125.79" cy="-21.21" rx="96.33" ry="21.43"/>
<text text-anchor="middle" x="1125.79" y="-24.21" font-family="Helvetica,sans-Serif" font-size="10.00" fill="#ffffff">tools.</text>
<text text-anchor="middle" x="1125.79" y="-13.21" font-family="Helvetica,sans-Serif" font-size="10.00" fill="#ffffff">add_all_cohorts_to_teacher</text>
</g>
<!-- tools_bookmark_info -->
<g id="node3" class="node">
<title>tools_bookmark_info</title><style>.edge>path:hover{stroke-width:8}</style>
<ellipse fill="#ac4949" stroke="black" cx="807.79" cy="-21.21" rx="56.64" ry="21.43"/>
<text text-anchor="middle" x="807.79" y="-24.21" font-family="Helvetica,sans-Serif" font-size="10.00" fill="#ffffff">tools.</text>
<text text-anchor="middle" x="807.79" y="-13.21" font-family="Helvetica,sans-Serif" font-size="10.00" fill="#ffffff">bookmark_info</text>
</g>
<!-- tools_bookmark_priorities_for_user -->
<g id="node4" class="node">
<title>tools_bookmark_priorities_for_user</title><style>.edge>path:hover{stroke-width:8}</style>
<ellipse fill="#ac4949" stroke="black" cx="632.79" cy="-21.21" rx="100.32" ry="21.43"/>
<text text-anchor="middle" x="632.79" y="-24.21" font-family="Helvetica,sans-Serif" font-size="10.00" fill="#ffffff">tools.</text>
<text text-anchor="middle" x="632.79" y="-13.21" font-family="Helvetica,sans-Serif" font-size="10.00" fill="#ffffff">bookmark_priorities_for_user</text>
</g>
<!-- tools_cleanup_non_content_bits -->
<g id="node5" class="node">
<title>tools_cleanup_non_content_bits</title><style>.edge>path:hover{stroke-width:8}</style>
<ellipse fill="#a44646" stroke="black" cx="1542.79" cy="-21.21" rx="91.85" ry="21.43"/>
<text text-anchor="middle" x="1542.79" y="-24.21" font-family="Helvetica,sans-Serif" font-size="10.00" fill="#ffffff">tools.</text>
<text text-anchor="middle" x="1542.79" y="-13.21" font-family="Helvetica,sans-Serif" font-size="10.00" fill="#ffffff">cleanup_non_content_bits</text>
</g>
<!-- tools_delete_bookmark -->
<g id="node6" class="node">
<title>tools_delete_bookmark</title><style>.edge>path:hover{stroke-width:8}</style>
<ellipse fill="#ac4949" stroke="black" cx="946.79" cy="-21.21" rx="64.19" ry="21.43"/>
<text text-anchor="middle" x="946.79" y="-24.21" font-family="Helvetica,sans-Serif" font-size="10.00" fill="#ffffff">tools.</text>
<text text-anchor="middle" x="946.79" y="-13.21" font-family="Helvetica,sans-Serif" font-size="10.00" fill="#ffffff">delete_bookmark</text>
</g>
<!-- tools_delete_feed -->
<g id="node7" class="node">
<title>tools_delete_feed</title><style>.edge>path:hover{stroke-width:8}</style>
<ellipse fill="#ac4949" stroke="black" cx="1287.79" cy="-21.21" rx="47.25" ry="21.43"/>
<text text-anchor="middle" x="1287.79" y="-24.21" font-family="Helvetica,sans-Serif" font-size="10.00" fill="#ffffff">tools.</text>
<text text-anchor="middle" x="1287.79" y="-13.21" font-family="Helvetica,sans-Serif" font-size="10.00" fill="#ffffff">delete_feed</text>
</g>
<!-- tools_feed_info -->
<g id="node8" class="node">
<title>tools_feed_info</title><style>.edge>path:hover{stroke-width:8}</style>
<ellipse fill="#ac4949" stroke="black" cx="1392.79" cy="-21.21" rx="39.7" ry="21.43"/>
<text text-anchor="middle" x="1392.79" y="-24.21" font-family="Helvetica,sans-Serif" font-size="10.00" fill="#ffffff">tools.</text>
<text text-anchor="middle" x="1392.79" y="-13.21" font-family="Helvetica,sans-Serif" font-size="10.00" fill="#ffffff">feed_info</text>
</g>
<!-- tools_fill_historical_exercise_sessions -->
<g id="node9" class="node">
<title>tools_fill_historical_exercise_sessions</title><style>.edge>path:hover{stroke-width:8}</style>
<ellipse fill="#ac4949" stroke="black" cx="226.79" cy="-21.21" rx="111.03" ry="21.43"/>
<text text-anchor="middle" x="226.79" y="-24.21" font-family="Helvetica,sans-Serif" font-size="10.00" fill="#ffffff">tools.</text>
<text text-anchor="middle" x="226.79" y="-13.21" font-family="Helvetica,sans-Serif" font-size="10.00" fill="#ffffff">fill_historical_exercise_sessions</text>
</g>
<!-- tools_find_broken_articles -->
<g id="node10" class="node">
<title>tools_find_broken_articles</title><style>.edge>path:hover{stroke-width:8}</style>
<ellipse fill="#a44646" stroke="black" cx="1725.79" cy="-21.21" rx="73.58" ry="21.43"/>
<text text-anchor="middle" x="1725.79" y="-24.21" font-family="Helvetica,sans-Serif" font-size="10.00" fill="#ffffff">tools.</text>
<text text-anchor="middle" x="1725.79" y="-13.21" font-family="Helvetica,sans-Serif" font-size="10.00" fill="#ffffff">find_broken_articles</text>
</g>
<!-- tools_users_recently_active -->
<g id="node11" class="node">
<title>tools_users_recently_active</title><style>.edge>path:hover{stroke-width:8}</style>
<ellipse fill="#ac4949" stroke="black" cx="434.79" cy="-21.21" rx="79.39" ry="21.43"/>
<text text-anchor="middle" x="434.79" y="-24.21" font-family="Helvetica,sans-Serif" font-size="10.00" fill="#ffffff">tools.</text>
<text text-anchor="middle" x="434.79" y="-13.21" font-family="Helvetica,sans-Serif" font-size="10.00" fill="#ffffff">users_recently_active</text>
</g>
<!-- zeeguu_core -->
<g id="node12" class="node">
<title>zeeguu_core</title><style>.edge>path:hover{stroke-width:8}</style>
<ellipse fill="#10f9f9" stroke="black" cx="1049.79" cy="-136.64" rx="42.27" ry="18"/>
<text text-anchor="middle" x="1049.79" y="-134.14" font-family="Helvetica,sans-Serif" font-size="10.00" fill="#000000">zeeguu_core</text>
</g>
<!-- zeeguu_core&#45;&gt;tools__playground -->
<g id="edge1" class="edge">
<title>zeeguu_core&#45;&gt;tools__playground</title><style>.edge>path:hover{stroke-width:8}</style>
<path fill="none" stroke="black" d="M1021.94,-122.89C1014.56,-119.98 1006.49,-117.22 998.79,-115.43 611.45,-24.94 495.95,-124.76 106.79,-42.43 102.45,-41.51 97.98,-40.35 93.55,-39.06"/>
<polygon fill="#10f9f9" stroke="black" points="94.56,-35.71 83.97,-36.07 92.47,-42.39 94.56,-35.71"/>
</g>
<!-- zeeguu_core&#45;&gt;tools_add_all_cohorts_to_teacher -->
<g id="edge2" class="edge">
<title>zeeguu_core&#45;&gt;tools_add_all_cohorts_to_teacher</title><style>.edge>path:hover{stroke-width:8}</style>
<path fill="none" stroke="black" d="M1061,-118.9C1072.98,-101.03 1092.18,-72.38 1106.57,-50.9"/>
<polygon fill="#10f9f9" stroke="black" points="1109.56,-52.73 1112.22,-42.47 1103.74,-48.83 1109.56,-52.73"/>
</g>
<!-- zeeguu_core&#45;&gt;tools_bookmark_info -->
<g id="edge3" class="edge">
<title>zeeguu_core&#45;&gt;tools_bookmark_info</title><style>.edge>path:hover{stroke-width:8}</style>
<path fill="none" stroke="black" d="M1022.5,-122.85C980.81,-103.31 900.88,-65.84 851.18,-42.55"/>
<polygon fill="#10f9f9" stroke="black" points="852.5,-39.3 841.96,-38.23 849.53,-45.64 852.5,-39.3"/>
</g>
<!-- zeeguu_core&#45;&gt;tools_bookmark_priorities_for_user -->
<g id="edge4" class="edge">
<title>zeeguu_core&#45;&gt;tools_bookmark_priorities_for_user</title><style>.edge>path:hover{stroke-width:8}</style>
<path fill="none" stroke="black" d="M1020.9,-123.44C1013.74,-120.63 1006.04,-117.78 998.79,-115.43 900.89,-83.7 785.46,-55.84 710.79,-39.03"/>
<polygon fill="#10f9f9" stroke="black" points="711.51,-35.6 700.99,-36.83 709.98,-42.43 711.51,-35.6"/>
</g>
<!-- zeeguu_core&#45;&gt;tools_cleanup_non_content_bits -->
<g id="edge5" class="edge">
<title>zeeguu_core&#45;&gt;tools_cleanup_non_content_bits</title><style>.edge>path:hover{stroke-width:8}</style>
<path fill="none" stroke="black" d="M1356.79,-78.43C1396.14,-64.83 1440.77,-51.28 1476.45,-40.89"/>
<polygon fill="#10f9f9" stroke="black" points="1477.63,-44.19 1486.26,-38.05 1475.68,-37.47 1477.63,-44.19"/>
</g>
<!-- zeeguu_core&#45;&gt;tools_delete_bookmark -->
<g id="edge6" class="edge">
<title>zeeguu_core&#45;&gt;tools_delete_bookmark</title><style>.edge>path:hover{stroke-width:8}</style>
<path fill="none" stroke="black" d="M1035.03,-119.39C1018.49,-101.17 991.38,-71.32 971.57,-49.5"/>
<polygon fill="#10f9f9" stroke="black" points="973.95,-46.91 964.63,-41.86 968.77,-51.62 973.95,-46.91"/>
</g>
<!-- zeeguu_core&#45;&gt;tools_delete_feed -->
<g id="edge7" class="edge">
<title>zeeguu_core&#45;&gt;tools_delete_feed</title><style>.edge>path:hover{stroke-width:8}</style>
<path fill="none" stroke="black" d="M1077.09,-122.63C1118.76,-102.77 1198.48,-64.78 1247.02,-41.64"/>
<polygon fill="#10f9f9" stroke="black" points="1248.77,-44.69 1256.29,-37.22 1245.76,-38.37 1248.77,-44.69"/>
</g>
<!-- zeeguu_core&#45;&gt;tools_feed_info -->
<g id="edge8" class="edge">
<title>zeeguu_core&#45;&gt;tools_feed_info</title><style>.edge>path:hover{stroke-width:8}</style>
<path fill="none" stroke="black" d="M1091.02,-132.09C1150.91,-126.04 1264.86,-111.19 1356.79,-79.43"/>
<path fill="none" stroke="black" d="M1356.79,-78.43C1369.03,-74.2 1377.44,-62.96 1383.04,-51.62"/>
<polygon fill="#10f9f9" stroke="black" points="1386.34,-52.81 1387.1,-42.24 1379.91,-50.03 1386.34,-52.81"/>
</g>
<!-- zeeguu_core&#45;&gt;tools_fill_historical_exercise_sessions -->
<g id="edge9" class="edge">
<title>zeeguu_core&#45;&gt;tools_fill_historical_exercise_sessions</title><style>.edge>path:hover{stroke-width:8}</style>
<path fill="none" stroke="black" d="M1021.91,-123.04C1014.52,-120.14 1006.46,-117.34 998.79,-115.43 715.87,-44.86 635.56,-82.88 346.79,-42.43 336.72,-41.02 326.2,-39.42 315.75,-37.76"/>
<polygon fill="#10f9f9" stroke="black" points="316.2,-34.29 305.77,-36.16 315.08,-41.2 316.2,-34.29"/>
</g>
<!-- zeeguu_core&#45;&gt;tools_find_broken_articles -->
<g id="edge10" class="edge">
<title>zeeguu_core&#45;&gt;tools_find_broken_articles</title><style>.edge>path:hover{stroke-width:8}</style>
<path fill="none" stroke="black" d="M1088.58,-129.22C1152.41,-118.68 1283.62,-97.11 1394.79,-79.43"/>
</g>
<!-- zeeguu_core&#45;&gt;tools_users_recently_active -->
<g id="edge11" class="edge">
<title>zeeguu_core&#45;&gt;tools_users_recently_active</title><style>.edge>path:hover{stroke-width:8}</style>
<path fill="none" stroke="black" d="M1021.58,-123.15C1014.27,-120.28 1006.33,-117.47 998.79,-115.43 792.65,-59.5 733.62,-82.33 523.79,-42.43 516.73,-41.08 509.37,-39.58 502.05,-38.02"/>
<polygon fill="#10f9f9" stroke="black" points="502.63,-34.56 492.12,-35.86 501.15,-41.4 502.63,-34.56"/>
</g>
<!-- zeeguu_core_content_retriever -->
<g id="node13" class="node">
<title>zeeguu_core_content_retriever</title><style>.edge>path:hover{stroke-width:8}</style>
<ellipse fill="#47c2c2" stroke="black" cx="1725.79" cy="-136.64" rx="62.87" ry="21.43"/>
<text text-anchor="middle" x="1725.79" y="-139.64" font-family="Helvetica,sans-Serif" font-size="10.00" fill="#000000">zeeguu_core.</text>
<text text-anchor="middle" x="1725.79" y="-128.64" font-family="Helvetica,sans-Serif" font-size="10.00" fill="#000000">content_retriever</text>
</g>
<!-- zeeguu_core_content_retriever&#45;&gt;tools_cleanup_non_content_bits -->
<g id="edge12" class="edge">
<title>zeeguu_core_content_retriever&#45;&gt;tools_cleanup_non_content_bits</title><style>.edge>path:hover{stroke-width:8}</style>
<path fill="none" stroke="black" d="M1730.35,-115.47C1731.82,-104.2 1731.78,-90.28 1725.79,-79.43"/>
<path fill="none" stroke="black" d="M1725.79,-78.43C1720.07,-68.05 1663.88,-51.78 1615.26,-39.41"/>
<polygon fill="#47c2c2" stroke="black" points="1615.89,-35.96 1605.34,-36.91 1614.18,-42.74 1615.89,-35.96"/>
</g>
<!-- zeeguu_core_content_retriever&#45;&gt;tools_find_broken_articles -->
<g id="edge13" class="edge">
<title>zeeguu_core_content_retriever&#45;&gt;tools_find_broken_articles</title><style>.edge>path:hover{stroke-width:8}</style>
<path fill="none" stroke="black" d="M1725.79,-78.43C1721.57,-70.77 1720.3,-61.59 1720.44,-52.89"/>
<polygon fill="#47c2c2" stroke="black" points="1723.95,-52.88 1721.2,-42.65 1716.97,-52.36 1723.95,-52.88"/>
</g>
<!-- zeeguu_core_model -->
<g id="node14" class="node">
<title>zeeguu_core_model</title><style>.edge>path:hover{stroke-width:8}</style>
<ellipse fill="#06efef" stroke="black" cx="936.79" cy="-136.64" rx="53.07" ry="21.43"/>
<text text-anchor="middle" x="936.79" y="-139.64" font-family="Helvetica,sans-Serif" font-size="10.00" fill="#000000">zeeguu_core.</text>
<text text-anchor="middle" x="936.79" y="-128.64" font-family="Helvetica,sans-Serif" font-size="10.00" fill="#000000">model</text>
</g>
<!-- zeeguu_core_model&#45;&gt;tools__playground -->
<g id="edge14" class="edge">
<title>zeeguu_core_model&#45;&gt;tools__playground</title><style>.edge>path:hover{stroke-width:8}</style>
<path fill="none" stroke="black" d="M883.85,-134.82C740.68,-132.07 348.45,-120.85 226.79,-79.43"/>
<path fill="none" stroke="black" d="M226.79,-78.43C174.08,-60.48 159.76,-59.59 106.79,-42.43 103.02,-41.2 99.12,-39.91 95.21,-38.59"/>
<polygon fill="#06efef" stroke="black" points="96.12,-35.21 85.53,-35.29 93.86,-41.83 96.12,-35.21"/>
</g>
<!-- zeeguu_core_model&#45;&gt;tools_add_all_cohorts_to_teacher -->
<g id="edge15" class="edge">
<title>zeeguu_core_model&#45;&gt;tools_add_all_cohorts_to_teacher</title><style>.edge>path:hover{stroke-width:8}</style>
<path fill="none" stroke="black" d="M965.09,-118.66C996.89,-99.57 1048.79,-68.42 1084.98,-46.7"/>
<polygon fill="#06efef" stroke="black" points="1087.05,-49.55 1093.82,-41.4 1083.44,-43.54 1087.05,-49.55"/>
</g>
<!-- zeeguu_core_model&#45;&gt;tools_bookmark_info -->
<g id="edge16" class="edge">
<title>zeeguu_core_model&#45;&gt;tools_bookmark_info</title><style>.edge>path:hover{stroke-width:8}</style>
<path fill="none" stroke="black" d="M915.49,-116.91C894.01,-98.03 860.72,-68.75 836.83,-47.75"/>
<polygon fill="#06efef" stroke="black" points="838.94,-44.95 829.12,-40.97 834.32,-50.2 838.94,-44.95"/>
</g>
<!-- zeeguu_core_model&#45;&gt;tools_bookmark_priorities_for_user -->
<g id="edge17" class="edge">
<title>zeeguu_core_model&#45;&gt;tools_bookmark_priorities_for_user</title><style>.edge>path:hover{stroke-width:8}</style>
<path fill="none" stroke="black" d="M899.21,-121.62C846.73,-102.04 751.07,-66.35 689.79,-43.48"/>
<polygon fill="#06efef" stroke="black" points="690.86,-40.14 680.27,-39.93 688.41,-46.7 690.86,-40.14"/>
</g>
<!-- zeeguu_core_model&#45;&gt;tools_cleanup_non_content_bits -->
<g id="edge18" class="edge">
<title>zeeguu_core_model&#45;&gt;tools_cleanup_non_content_bits</title><style>.edge>path:hover{stroke-width:8}</style>
<path fill="none" stroke="black" d="M975.56,-122C983.2,-119.6 991.2,-117.28 998.79,-115.43 1095.72,-91.78 1343.64,-60.33 1441.79,-42.43 1449.67,-40.99 1457.88,-39.44 1466.07,-37.85"/>
<polygon fill="#06efef" stroke="black" points="1466.88,-41.26 1476.03,-35.91 1465.54,-34.39 1466.88,-41.26"/>
</g>
<!-- zeeguu_core_model&#45;&gt;tools_delete_bookmark -->
<g id="edge19" class="edge">
<title>zeeguu_core_model&#45;&gt;tools_delete_bookmark</title><style>.edge>path:hover{stroke-width:8}</style>
<path fill="none" stroke="black" d="M938.58,-115.36C940.11,-97.97 942.34,-72.65 944.09,-52.8"/>
<polygon fill="#06efef" stroke="black" points="947.59,-52.97 944.98,-42.7 940.62,-52.35 947.59,-52.97"/>
</g>
<!-- zeeguu_core_model&#45;&gt;tools_delete_feed -->
<g id="edge20" class="edge">
<title>zeeguu_core_model&#45;&gt;tools_delete_feed</title><style>.edge>path:hover{stroke-width:8}</style>
<path fill="none" stroke="black" d="M976.79,-122.53C984.11,-120.15 991.67,-117.71 998.79,-115.43 1101.73,-82.45 1128.28,-76.72 1230.79,-42.43 1234.55,-41.17 1238.44,-39.84 1242.33,-38.5"/>
<polygon fill="#06efef" stroke="black" points="1243.69,-41.73 1251.98,-35.13 1241.38,-35.12 1243.69,-41.73"/>
</g>
<!-- zeeguu_core_model&#45;&gt;tools_feed_info -->
<g id="edge21" class="edge">
<title>zeeguu_core_model&#45;&gt;tools_feed_info</title><style>.edge>path:hover{stroke-width:8}</style>
<path fill="none" stroke="black" d="M975.96,-122.17C983.49,-119.78 991.35,-117.42 998.79,-115.43 1150.18,-74.86 1194.06,-88.73 1343.79,-42.43 1347.1,-41.4 1350.5,-40.24 1353.88,-39.01"/>
<polygon fill="#06efef" stroke="black" points="1355.23,-42.24 1363.31,-35.39 1352.72,-35.71 1355.23,-42.24"/>
</g>
<!-- zeeguu_core_model&#45;&gt;tools_fill_historical_exercise_sessions -->
<g id="edge22" class="edge">
<title>zeeguu_core_model&#45;&gt;tools_fill_historical_exercise_sessions</title><style>.edge>path:hover{stroke-width:8}</style>
<path fill="none" stroke="black" d="M226.79,-78.43C216.5,-74.92 215.16,-63.83 216.94,-52.41"/>
<polygon fill="#06efef" stroke="black" points="220.39,-53 219.15,-42.48 213.56,-51.48 220.39,-53"/>
</g>
<!-- zeeguu_core_model&#45;&gt;tools_find_broken_articles -->
<g id="edge23" class="edge">
<title>zeeguu_core_model&#45;&gt;tools_find_broken_articles</title><style>.edge>path:hover{stroke-width:8}</style>
<path fill="none" stroke="black" d="M974.79,-121.77C982.64,-119.32 990.92,-117.05 998.79,-115.43 1171.89,-79.81 1220.26,-107.18 1394.79,-79.43"/>
<path fill="none" stroke="black" d="M1394.79,-78.43C1505.22,-60.87 1534.04,-63.83 1643.79,-42.43 1650.02,-41.21 1656.49,-39.83 1662.95,-38.37"/>
<polygon fill="#06efef" stroke="black" points="1664.08,-41.7 1673.03,-36.03 1662.49,-34.88 1664.08,-41.7"/>
</g>
<!-- zeeguu_core_model&#45;&gt;tools_users_recently_active -->
<g id="edge24" class="edge">
<title>zeeguu_core_model&#45;&gt;tools_users_recently_active</title><style>.edge>path:hover{stroke-width:8}</style>
<path fill="none" stroke="black" d="M891.56,-125.45C815.58,-108.33 657.49,-72.7 523.79,-42.43 517.25,-40.95 510.44,-39.4 503.62,-37.86"/>
<polygon fill="#06efef" stroke="black" points="504.2,-34.4 493.67,-35.6 502.65,-41.22 504.2,-34.4"/>
</g>
</g>
</svg>
